<svg xmlns="http://www.w3.org/2000/svg" width="19.8" height="16.8" viewBox="0 0 19.8 16.8">
  <defs>
    <style>
      .a {
        fill: #888;
        fill-rule: evenodd;
      }
    </style>
  </defs>
  <title>02-Orders-Icon-Default</title>
  <path class="a" d="M8.4,0A8.42,8.42,0,0,1,16,4.8l3.1-3.1.7.7L16.4,5.8a7.44,7.44,0,0,1,.4,2.6A8.4,8.4,0,1,1,8.4,0ZM3.2,7.3l5.2,5.2,6.9-6.9A7.52,7.52,0,0,0,8.4,1a7.4,7.4,0,1,0,7.4,7.4h0a8.87,8.87,0,0,0-.2-1.7L8.4,13.9,2.5,8Z" transform="translate(0)"/>
</svg>
