<svg xmlns="http://www.w3.org/2000/svg" width="16.8" height="16.8" viewBox="0 0 16.8 16.8">
  <defs>
    <style>
      .a {
        fill: #989898;
        fill-rule: evenodd;
      }
    </style>
  </defs>
  <title>05-Support-Icon-Default</title>
  <path class="a" d="M8.4,0A8.4,8.4,0,1,1,0,8.4,8.4,8.4,0,0,1,8.4,0ZM7.9,10.4,9.2,10a.89.89,0,0,1-.3-.7c0-1.3,2.6-1.5,2.6-3.7,0-1.3-1.1-2.3-3-2.3A4.08,4.08,0,0,0,5.3,4.8l1,1.1a2.64,2.64,0,0,1,2.1-1c1,0,1.4.5,1.4,1.1,0,1.3-2.4,1.4-2.4,3.3A1.63,1.63,0,0,0,7.9,10.4Zm.5,3.1a1,1,0,0,0,1-1,1.08,1.08,0,0,0-1-1,1.08,1.08,0,0,0-1,1A1.08,1.08,0,0,0,8.4,13.5ZM8.4,1a7.4,7.4,0,1,0,7.4,7.4h0A7.37,7.37,0,0,0,8.46,1H8.4Z" transform="translate(0 0)"/>
</svg>
