<svg xmlns="http://www.w3.org/2000/svg" width="9" height="9" viewBox="0 0 9 9">
  <defs>
    <style>
      .a {
        fill: #8031a7;
        fill-rule: evenodd;
      }
    </style>
  </defs>
  <title>08-Comment-Icon</title>
  <path class="a" d="M4.2,5.5l.7-.2c-.1-.1-.2-.2-.2-.3C4.7,4.3,6,4.2,6,3.1c0-.7-.6-1.2-1.5-1.2a2.16,2.16,0,0,0-1.6.7l.5.6a1.39,1.39,0,0,1,1-.5c.6,0,.8.3.8.6C5.2,3.9,4,4,4,4.9A1.42,1.42,0,0,0,4.2,5.5Zm.3,1.6A.56.56,0,0,0,5,6.5.47.47,0,0,0,4.56,6H4.5a.54.54,0,0,0-.5.5A.56.56,0,0,0,4.5,7.1ZM4.5,0A4.5,4.5,0,1,1,0,4.5,4.49,4.49,0,0,1,4.5,0Zm0,1A3.54,3.54,0,0,1,8,4.5,3.54,3.54,0,0,1,4.5,8,3.54,3.54,0,0,1,1,4.5,3.54,3.54,0,0,1,4.5,1Z" transform="translate(0 0)"/>
</svg>
