<svg xmlns="http://www.w3.org/2000/svg" width="113.64" height="41.7" viewBox="0 0 113.64 41.7">
  <defs>
    <style>
      .a {
        fill: #8031a7;
      }

      .a, .b {
        fill-rule: evenodd;
      }

      .b {
        fill: #cba052;
      }
    </style>
  </defs>
  <title>ZLT-Club-Logotype</title>
  <path class="a" d="M88.8,33.4H83.9a8.64,8.64,0,0,0-.8,1.2A7.6,7.6,0,0,0,82,37.9a2.28,2.28,0,0,0,.5,1.7,2.19,2.19,0,0,0,1.7.7c2.1.1,4.5-1.2,6.1-2.4a20.34,20.34,0,0,1,3.2-7c.6-.8,1.8-1.8,2.9-1.1s.8,2.3.3,3.2a20.41,20.41,0,0,1-5.2,5.6,1.48,1.48,0,0,0,.3,1.4.83.83,0,0,0,.6.3c1.9.4,4.4-1.6,5.5-3L99,34.6h1.3l-1.8,4.5a4.46,4.46,0,0,0-.2.8.56.56,0,0,0,.5.6c.7,0,1.8-1.2,2.2-1.7a16.35,16.35,0,0,0,1.3-1.9,18,18,0,0,0,1.1-2.3h1.3l-1.6,4c-.2.4-.4,1.2,0,1.6s1,.2,1.4,0a11.42,11.42,0,0,0,2.9-2.9l3-7.6h1.3l-2.6,6.4a4,4,0,0,1,2.3-1.6c.6-.1,1.3-.2,1.7.3a2.12,2.12,0,0,1,.3,2.4,6.45,6.45,0,0,1-1.4,2.2,7.3,7.3,0,0,1-2.2,1.7,4,4,0,0,1-2,.5c-.1,0-.2-.1-.3-.1l.5-1.1h.2a1.15,1.15,0,0,0,1-.2,6.92,6.92,0,0,0,1.7-1.3,6.54,6.54,0,0,0,1.2-1.7c.1-.3.3-1,0-1.3s-.8-.1-1.1.1a7.85,7.85,0,0,0-2.4,2.4,5.32,5.32,0,0,0-1,1.6l-.6,1.5h-1.3l.4-1a6.68,6.68,0,0,1-1.4.9c-.8.3-2,.5-2.6-.2a1.79,1.79,0,0,1-.4-1.7c-.8.9-2,2.2-3.4,2.2A1.37,1.37,0,0,1,96.9,40c-1.5,1.2-3.3,2-4.9,1.6a2.29,2.29,0,0,1-1.2-.6,1.86,1.86,0,0,1-.6-1.4,11.45,11.45,0,0,1-6.1,2.1,3.34,3.34,0,0,1-2.6-1.2,3.86,3.86,0,0,1-.8-2.6A9.44,9.44,0,0,1,81.9,34a2.29,2.29,0,0,1,.3-.5H6.2A6.5,6.5,0,0,1,0,27V6.3A6.34,6.34,0,0,1,6.3,0H106.6a6.27,6.27,0,0,1,6.3,6.24h0V16.6h-1.2V6.3a5.12,5.12,0,0,0-5.1-5.1H6.3A5.12,5.12,0,0,0,1.2,6.3V27a5.12,5.12,0,0,0,5.1,5.1h77a9.07,9.07,0,0,1,1.4-1.3,3.58,3.58,0,0,1,2.3-.7,2.45,2.45,0,0,1,1.2.4,1.61,1.61,0,0,1,.7,1.1A2.3,2.3,0,0,1,88.8,33.4Zm-3.7-1.3h2.7v-.3c0-.2-.1-.3-.2-.3a.7.7,0,0,0-.5-.2,3.66,3.66,0,0,0-1.6.5C85.3,32,85.2,32.1,85.1,32.1ZM92,36.5a19.89,19.89,0,0,0,3.5-4.1c.2-.3.6-1.3.2-1.6s-1.1.6-1.3.8A20.45,20.45,0,0,0,92,36.5Z" transform="translate(0 0)"/>
  <path class="a" d="M59.5,14.5,61,13l-.8-2a7,7,0,0,0-2.7,2.7Zm2.7-2h2.1l.8-2a6.17,6.17,0,0,0-3.8,0Zm3.3.5L67,14.5l2-.8A7,7,0,0,0,66.3,11Zm1.9,2.6v2.1l2,.8a6.17,6.17,0,0,0,0-3.8ZM67,18.9l-1.5,1.5.8,2A7,7,0,0,0,69,19.7Zm-2.7,2H62.2l-.8,2a6.17,6.17,0,0,0,3.8,0ZM61,20.4l-1.5-1.5-2,.8a7,7,0,0,0,2.7,2.7Zm-1.9-2.6V15.7l-2-.8a6.17,6.17,0,0,0,0,3.8ZM63.3,9a7.64,7.64,0,1,1-.12,0ZM62,13.7h2.4l1.7,1.7v2.4l-1.7,1.7H62l-1.7-1.7V15.4Z" transform="translate(0 0)"/>
  <path class="a" d="M93.5,24.1h3.2L96,22.5H94.2Zm4.4-.5,1.5-1.5-1.8-.6-.4.5ZM96,10.9l.7-1.6H93.5l.7,1.6Zm1.9-1.2-.7,1.6.4.4,1.8-.6Zm2,11.3V12.3l-1.9.6v7.6Zm-6.8,1-.4-.4-1.8.6,1.5,1.5ZM92.4,9.7l-1.5,1.5,1.8.6.4-.4Zm-.2,10.8V12.9l-1.9-.6V21Zm1.9.7h2.1l.6-.6V12.7l-.6-.6H94.1l-.6.6v7.9Zm3.6,4.1H92.3l-3.2-3.2V11.3l3.2-3.2H98l3.2,3.2V22.2L98,25.3Z" transform="translate(0 0)"/>
  <path class="a" d="M33.3,7.9c4.4,0,6.8,4.9,6.8,8.8s-2.3,8.8-6.8,8.8-6.8-4.9-6.8-8.8S28.8,7.9,33.3,7.9Zm2.2,8.8L35,14l-1.7-1.4L31.6,14,31,16.7l.6,2.7,1.7,1.4L35,19.4Zm.7-2.8.5,2.2h2.1a8.88,8.88,0,0,0-1-3.7Zm.5,3.4-.5,2.2L37.8,21a8.88,8.88,0,0,0,1-3.7Zm-1.2,3.2-1.6,1.4v2.3a5.55,5.55,0,0,0,3.3-2.1Zm-2.9,1.4L31,20.5l-1.6,1.6a4.89,4.89,0,0,0,3.3,2.1V21.9Zm-2.3-2.4-.5-2.2H27.7a8.88,8.88,0,0,0,1,3.7Zm-.5-3.4.5-2.2-1.6-1.5a8.88,8.88,0,0,0-1,3.7ZM31,12.9l1.6-1.4V9.2a5.55,5.55,0,0,0-3.3,2.1Zm2.9-1.4,1.6,1.4,1.6-1.6a4.89,4.89,0,0,0-3.3-2.1v2.3Z" transform="translate(0 0)"/>
  <polygon class="b" points="15.3 22.9 23.5 8.9 23.5 8.1 12.2 8.1 12.2 10.5 19.6 10.5 11.3 24.4 11.3 25.3 23.6 25.3 23.6 22.9 15.3 22.9"/>
  <polygon class="b" points="44.8 25.3 54.9 25.3 54.9 22.9 47.5 22.9 47.5 8.1 44.8 8.1 44.8 25.3"/>
  <polygon class="b" points="77.8 25.3 80.5 25.3 80.5 10.5 85.6 10.5 85.6 8.1 72.7 8.1 72.7 10.5 77.8 10.5 77.8 25.3"/>
</svg>
